<svg width="20" height="17" viewBox="0 0 20 17" fill="none" xmlns="http://www.w3.org/2000/svg">
<g id="Group 25">
<g id="Group 23">
<path id="Vector 3" d="M20 0.5L-1.90735e-06 0.499999L-2.62749e-06 16.9749L20 16.9749L20 0.5Z" fill="#E8E8E8"/>
<path id="Vector 4" d="M17.8872 2.18612L2.04212 2.18612L2.04212 14.8622L17.8872 14.8622L17.8872 2.18612Z" fill="#9C9C9C"/>
<path id="Vector 5" d="M5 5.5C5 4.94772 5.44772 4.5 6 4.5C6.55228 4.5 7 4.94772 7 5.5C7 6.05228 6.55228 6.5 6 6.5C5.44772 6.5 5 6.05228 5 5.5Z" fill="white"/>
<path id="Vector 6" d="M13 5.5C13 4.94772 13.4477 4.5 14 4.5C14.5523 4.5 15 4.94772 15 5.5C15 6.05228 14.5523 6.5 14 6.5C13.4477 6.5 13 6.05228 13 5.5Z" fill="white"/>
</g>
</g>
</svg>
