<svg width="20" height="17" viewBox="0 0 20 17" fill="none" xmlns="http://www.w3.org/2000/svg">
<g id="Group 24">
<g id="Group 23">
<path id="Vector 3" d="M19 0.5L0.999998 0.499999C0.447714 0.499999 -1.92692e-06 0.947714 -1.95106e-06 1.5L-2.58378e-06 15.9749C-2.60792e-06 16.5272 0.447713 16.9749 0.999997 16.9749L19 16.9749C19.5523 16.9749 20 16.5272 20 15.9749L20 1.5C20 0.947715 19.5523 0.5 19 0.5Z" fill="#E8E8E8"/>
<path id="Vector 4" d="M17.3872 2.18612L2.54212 2.18612C2.26598 2.18612 2.04212 2.40998 2.04212 2.68612L2.04212 14.3622C2.04212 14.6383 2.26598 14.8622 2.54212 14.8622L17.3872 14.8622C17.6633 14.8622 17.8872 14.6383 17.8872 14.3622L17.8872 2.68612C17.8872 2.40998 17.6633 2.18612 17.3872 2.18612Z" fill="#9C9C9C"/>
</g>
</g>
</svg>
